
 
http://i1210.photobucket.com/albums/cc417/mr2006reloaded/Upload5/ts.jpg

General
Complete name                            : The Selling 2011 DVDRip x264 AAC-UNiQUE.mp4
Format                                   : MPEG-4
Format profile                           : Base Media
Codec ID                                 : isom
File size                                : 700 MiB
Duration                                 : 1h 43mn
Overall bit rate mode                    : Variable
Overall bit rate                         : 948 Kbps
Encoded date                             : UTC 2012-11-16 21:34:02

Video
ID                                       : 1
Format                                   : AVC
Format/Info                              : Advanced Video Codec
Format profile                           : High@L4.1
Format settings, CABAC                   : Yes
Format settings, ReFrames                : 3 frames
Codec ID                                 : avc1
Codec ID/Info                            : Advanced Video Coding
Duration                                 : 1h 39mn
Bit rate mode                            : Variable
Bit rate                                 : 886 Kbps
Maximum bit rate                         : 40.0 Mbps
Width                                    : 720 pixels
Height                                   : 304 pixels
Display aspect ratio                     : 2.35:1
Frame rate mode                          : Constant
Frame rate                               : 23.976 fps
Color space                              : YUV
Chroma subsampling                       : 4:2:0
Bit depth                                : 8 bits
Scan type                                : Progressive
Bits/(Pixel*Frame)                       : 0.169
Stream size                              : 629 MiB (90%)
Writing library                          : x264 core 129 r2230 1cffe9f

Audio
ID                                       : 2
Format                                   : AAC
Format/Info                              : Advanced Audio Codec
Format profile                           : LC
Codec ID                                 : 40
Duration                                 : 1h 43mn
Bit rate mode                            : Variable
Bit rate                                 : 92.3 Kbps
Maximum bit rate                         : 143 Kbps
Channel(s)                               : 2 channels
Channel positions                        : Front: L R
Sampling rate                            : 48.0 KHz
Compression mode                         : Lossy
Stream size                              : 68.2 MiB (10%)
Language                                 : English
Encoded date                             : UTC 2012-11-16 21:34:34

Source                            : COMPLETE.DVDR-AXED - Thanks!    

Storyline
A too-honest-for-his-own-good real estate agent has to sell a haunted house before its ghostly inhabitants ruin his life.

iMDB: http://www.imdb.com/title/tt1552214/


 
http://img339.imageshack.us/img339/3842/728082.jpg 
http://s1.eih.bz/images/theselling.jpg


